<svg width="487" height="136" viewBox="0 0 487 136" fill="none" xmlns="http://www.w3.org/2000/svg">
<path d="M182.159 0.307577C181.688 0.746466 181.816 4.52091 182.288 5.26702C182.631 5.79369 182.717 5.7498 182.717 5.00369C182.717 3.7748 184.26 3.29202 184.817 4.30147C185.031 4.69647 185.331 4.91591 185.46 4.78424C185.674 4.60869 182.888 0.000355184 182.545 0.000355184C182.502 0.000355184 182.288 0.132022 182.159 0.307577ZM183.445 2.1948C183.831 2.76536 183.831 3.11647 183.531 3.33591C182.974 3.64313 182.888 3.55536 182.545 2.28258C182.159 1.09758 182.759 1.0098 183.445 2.1948Z" fill="white"/>
<path d="M210.064 0.965595C209.378 1.18504 208.864 1.58004 208.864 1.79948C208.864 2.01893 208.521 2.19448 208.049 2.19448C207.149 2.19448 205.992 3.37948 206.463 3.81837C206.592 3.99393 206.978 3.86226 207.235 3.59893C207.921 2.89671 208.435 2.94059 208.435 3.73059C208.435 4.12559 208.135 4.52059 207.792 4.65226C206.806 5.04726 207.021 5.79337 208.007 5.48615C208.607 5.26671 208.864 5.39837 208.864 5.92504C208.864 6.89059 207.706 7.24171 206.892 6.53948C206.292 6.01282 206.206 6.05671 206.335 6.80282C206.463 7.28559 206.935 7.72448 207.406 7.81226C208.564 7.98782 209.85 6.71504 209.593 5.66171C209.464 5.22282 209.635 4.65226 209.978 4.34504C210.45 3.95004 210.578 3.99393 210.578 4.65226C210.578 5.13504 210.793 5.79337 211.05 6.14448C211.393 6.62726 211.436 6.10059 211.264 4.21337C211.093 2.10671 211.178 1.49226 211.779 1.05337C212.379 0.570595 212.379 0.482817 211.864 0.482817C211.521 0.482817 210.707 0.702261 210.064 0.965595ZM209.978 3.42337C209.807 3.55504 209.464 3.42337 209.164 3.11615C208.778 2.72115 208.778 2.50171 209.292 2.19448C209.764 1.88726 209.978 1.97504 210.064 2.45782C210.15 2.85282 210.107 3.24782 209.978 3.42337Z" fill="white"/>
<path d="M187.303 10.8408C186.832 11.2797 186.96 15.0541 187.432 15.8002C187.775 16.3269 187.86 16.283 187.86 15.5369C187.86 14.308 189.404 13.8252 189.961 14.8347C190.175 15.2297 190.475 15.4491 190.604 15.3174C190.818 15.1419 188.032 10.5336 187.689 10.5336C187.646 10.5336 187.432 10.6652 187.303 10.8408ZM188.589 12.728C188.975 13.2986 188.975 13.6497 188.675 13.8691C188.118 14.1763 188.032 14.0886 187.689 12.8158C187.303 11.6308 187.903 11.543 188.589 12.728Z" fill="white"/>
<path d="M199.434 11.1478C199.434 11.5428 199.734 11.6744 200.334 11.5428C201.02 11.3672 201.191 11.455 201.063 11.8939C200.934 12.245 200.334 12.4644 199.691 12.4206C198.448 12.3328 198.191 12.9033 199.262 13.5178C199.777 13.825 199.82 14.0006 199.477 14.2639C198.748 14.7028 197.719 14.1761 197.719 13.3861C197.719 13.035 197.548 12.7278 197.291 12.7278C196.69 12.7278 196.733 14.1761 197.376 14.8344C198.148 15.6244 199.777 15.4489 200.377 14.5272C200.634 14.0883 201.105 13.7811 201.448 13.9128C201.877 14.0883 201.877 14.3078 201.363 15.0539C201.02 15.5806 200.72 16.195 200.72 16.4144C200.72 17.0289 202.391 15.3611 203.206 13.9128C203.677 13.1228 204.192 12.7717 204.663 12.9033C205.863 13.2106 205.563 12.3328 204.32 11.85C202.777 11.2356 202.22 11.2794 202.82 11.9817C203.377 12.6839 203.034 13.1667 201.92 13.1667C201.277 13.1667 201.191 12.9911 201.534 12.3767C201.834 11.8061 201.791 11.3672 201.491 11.06C200.763 10.3139 199.434 10.4017 199.434 11.1478Z" fill="white"/>
<path d="M197.119 21.3742C198.362 21.5937 198.748 23.2176 197.805 23.9637C197.419 24.3148 197.248 24.5781 197.462 24.5781C198.062 24.5781 202.006 21.9009 202.006 21.462C202.006 21.2426 200.72 21.1109 199.134 21.1109C197.505 21.1548 196.648 21.2865 197.119 21.3742ZM200.548 22.1642C199.477 22.9981 199.177 22.9981 198.834 22.1642C198.662 21.6815 198.919 21.5059 199.991 21.5059C201.277 21.5498 201.32 21.5498 200.548 22.1642Z" fill="white"/>
<path d="M189.532 24.2708C188.718 24.8413 187.732 25.4119 187.303 25.5874C186.489 25.8947 185.889 27.0797 186.317 27.5186C186.446 27.6941 186.832 27.4308 187.175 26.9919C187.56 26.4213 187.817 26.3336 188.032 26.7286C188.246 27.0358 188.032 27.6502 187.603 28.133C186.874 28.9669 187.003 29.1424 188.418 29.0108C189.403 28.8791 189.361 29.713 188.375 30.2397C187.817 30.5469 187.389 30.503 187.089 30.1958C186.703 29.8008 186.574 29.8447 186.574 30.4152C186.574 31.4686 188.503 31.3808 189.275 30.2397C189.618 29.7569 189.832 29.0108 189.704 28.528C189.318 27.1236 190.346 27.1674 190.861 28.6597C191.632 30.8102 191.89 29.2302 191.118 26.9041C190.604 25.368 190.561 24.7536 190.904 24.2708C191.761 23.2174 191.032 23.2174 189.532 24.2708ZM189.575 26.5969C189.018 27.2552 188.932 27.2113 188.675 26.4652C188.375 25.5874 189.146 24.8413 189.746 25.4558C190.004 25.7191 189.918 26.158 189.575 26.5969Z" fill="white"/>
<path d="M205.863 25.9822C205.863 26.9039 207.321 31.1611 207.621 31.1611C207.792 31.1611 207.835 30.81 207.706 30.3711C207.406 29.1861 208.649 28.2645 209.507 28.9667C209.893 29.2739 210.278 29.4495 210.407 29.3178C210.621 29.0545 206.592 25.4556 206.12 25.4556C205.992 25.4556 205.863 25.675 205.863 25.9822ZM208.349 27.9134C208.392 27.9572 208.178 28.1767 207.835 28.4839C207.364 28.8789 207.149 28.7472 206.763 27.6061L206.292 26.2017L207.235 27.0356C207.792 27.4745 208.264 27.8695 208.349 27.9134Z" fill="white"/>
<path d="M215.294 34.9359C215.294 35.1554 215.508 35.5943 215.765 35.8576C216.537 36.6476 215.294 38.1837 214.136 37.9204C213.579 37.7448 213.15 37.7448 213.15 37.8765C213.15 38.2715 218.766 40.0709 219.023 39.7637C219.151 39.6321 218.551 38.5787 217.651 37.4376C215.336 34.4971 215.294 34.4532 215.294 34.9359ZM217.351 37.8326C218.166 38.6665 217.951 39.1493 216.922 38.7982C215.679 38.4471 215.594 38.3593 215.937 37.7887C216.28 37.1743 216.708 37.1743 217.351 37.8326Z" fill="white"/>
<path d="M181.045 37.3495C179.588 38.0078 179.03 38.0956 178.559 37.7006C177.53 36.8228 177.53 37.5251 178.602 38.9734C179.545 40.3339 180.316 40.4656 179.845 39.2367C179.716 38.8856 179.888 38.6223 180.23 38.6223C181.259 38.6223 181.474 39.1489 180.745 40.0267C180.145 40.6412 180.145 40.9045 180.573 41.4751C181.174 42.2212 182.288 42.3528 182.288 41.6945C182.288 41.4312 181.988 41.2556 181.645 41.2556C181.302 41.2556 181.002 41.0362 181.002 40.8167C181.002 40.2023 182.417 40.2462 183.06 40.9045C183.745 41.6067 184.26 40.9923 183.617 40.2023C183.231 39.7195 183.231 39.5001 183.617 39.2367C184.388 38.7539 185.417 40.3778 184.817 41.1239C184.431 41.5628 184.474 41.6945 185.031 41.6945C186.017 41.6945 185.931 39.8073 184.903 38.8856C184.26 38.2712 183.874 38.2273 183.188 38.5784C182.588 38.9295 182.245 38.9295 182.031 38.5345C181.859 38.2712 181.902 37.9639 182.159 37.8762C182.417 37.7884 182.974 37.4373 183.402 37.0862C184.603 36.1645 183.36 36.2962 181.045 37.3495Z" fill="white"/>
<path d="M98.4876 42.8358C90.0433 44.2403 83.1849 48.9364 80.0987 55.388C77.9983 59.7769 77.141 67.1064 78.3412 70.3541C78.6413 71.0564 77.6983 71.1003 63.2958 71.1003C46.75 71.1003 46.2357 71.188 45.2069 73.3825C44.5211 74.8308 45.1641 76.4986 46.7072 77.2008C47.2644 77.4641 49.7506 77.6836 52.1938 77.6836C55.4944 77.6836 56.6946 77.8153 56.6946 78.2103C56.6946 78.5175 56.1802 81.4141 55.5373 84.618L54.4228 90.4553L50.5221 92.3425C46.5357 94.2736 41.692 96.1169 38.3486 96.9947C37.3198 97.258 36.2054 97.6091 35.8624 97.7408C35.4767 97.8725 35.7338 97.1703 36.5483 95.9853C38.9058 92.3864 39.6774 90.0603 39.8917 85.9786C40.1918 80.0975 38.6915 76.5425 34.9623 74.3041C33.0762 73.2069 32.519 73.0753 28.8326 73.0753C25.232 73.0753 24.4605 73.2069 22.3172 74.3041C19.531 75.7086 15.8018 78.9564 14.9017 80.7997C14.0015 82.5553 14.0872 85.408 15.116 86.9003C16.8734 89.4458 18.7166 88.7436 20.6026 84.7058C21.5457 82.7747 22.1458 82.1164 23.8175 81.2386C27.8468 79.1758 32.0904 79.5708 33.3763 82.2041C34.1907 83.7403 34.2336 87.1636 33.5049 89.4458C32.7762 91.8158 30.29 95.4147 28.104 97.4336L26.1322 99.1891L21.9743 98.9258C17.5164 98.6186 15.3303 99.0575 14.0444 100.506C13.0156 101.691 13.83 103.929 16.0161 105.948C18.0308 107.879 19.7454 108.011 23.9032 106.606L26.7323 105.641L27.8039 106.694C29.4756 108.274 30.1186 109.898 30.1186 112.356C30.1186 118.632 24.932 122.319 16.702 121.924C9.75791 121.616 6.84312 119.115 6.11442 112.882C5.64291 108.976 4.14265 107.572 1.87083 108.845C-0.315266 110.03 -0.658183 115.56 1.22786 119.597C3.37109 124.294 8.85775 127.892 14.7731 128.507C21.5885 129.253 27.2467 127.849 31.5331 124.381C37.2341 119.817 38.9916 111.346 35.3909 105.948C34.8337 105.07 34.4479 104.28 34.4908 104.192C34.5765 104.149 36.8912 103.578 39.5917 102.964C42.335 102.349 46.3643 101.252 48.5504 100.55C50.7793 99.8036 52.6225 99.2769 52.6654 99.3208C52.7082 99.3647 51.8509 104.017 50.6936 109.635C49.5362 115.252 48.2932 121.748 47.9074 124.074C47.2216 128.156 47.2216 128.331 48.036 129.429C48.4646 130.043 49.3648 130.745 50.0506 131.009C52.8797 132.062 54.037 128.287 60.5096 96.5558C62.4385 87.2514 64.0673 79.2197 64.1959 78.6491C64.4102 77.6836 64.496 77.6836 71.6972 77.6836C75.7265 77.6836 78.9842 77.8153 78.9842 77.9469C78.9842 78.9125 73.4118 109.064 71.8687 116.437C70.8399 121.441 69.9826 126.137 69.9826 126.883C69.9826 128.375 72.3402 131.228 73.6261 131.228C75.1693 131.228 76.7552 125.566 81.5132 103.139C84.0851 90.938 86.2712 79.3953 86.2712 78.0786C86.2712 77.8591 88.8431 77.6836 91.9722 77.6836C95.0584 77.6836 98.2733 77.508 99.0448 77.2447C100.331 76.8936 100.459 76.9375 100.202 77.5958C99.0448 80.7119 99.2163 86.2858 100.588 88.963C102.26 92.2986 105.989 93.7908 111.39 93.3519C113.79 93.1325 114.476 93.1764 114.39 93.6153C114.305 93.8786 113.962 95.3708 113.705 96.863C113.19 99.4525 113.104 99.628 111.818 99.8036C111.09 99.9353 108.432 100.374 105.903 100.725C96.9445 102.086 92.6151 103.841 91.1577 106.738C90.6434 107.791 90.5148 108.889 90.6434 111.259C90.9006 115.209 92.7009 118.851 95.9157 121.967C102.817 128.639 110.404 123.986 116.276 109.503L117.862 105.553L120.177 105.246C124.335 104.675 132.779 103.666 132.822 103.71C132.865 103.754 131.965 108.845 130.807 114.989C129.65 121.134 128.707 126.795 128.707 127.629C128.707 129.253 130.379 131.228 131.751 131.228C132.951 131.228 133.679 129.736 135.094 124.425C136.809 118.017 143.024 88.8753 143.967 82.5991L144.738 77.6836H150.611C153.869 77.6836 156.998 77.508 157.598 77.2447C158.97 76.718 159.784 75.0503 159.398 73.5141C158.97 71.7147 156.955 71.1003 151.34 71.1003H146.496L144.696 67.4575C138.909 55.8708 127.807 47.093 114.862 43.8891C111.39 43.0114 101.36 42.3969 98.4876 42.8358ZM114.948 50.8675C121.677 52.8864 127.936 56.573 133.294 61.6203C136.08 64.2975 141.138 70.1786 141.138 70.8369C141.138 70.9686 138.909 71.1003 136.208 71.1003C129.307 71.1003 127.25 72.1536 128.021 75.3136C128.45 76.9375 130.336 77.6836 134.065 77.6836C135.823 77.6836 137.28 77.8591 137.28 78.1225C137.28 78.7808 134.28 96.2925 134.065 96.863C133.979 97.1703 133.251 97.4336 132.479 97.4336C131.751 97.4336 128.621 97.7847 125.621 98.1797C122.62 98.5747 120.048 98.7941 119.92 98.6625C119.791 98.5308 119.963 96.7753 120.306 94.7564C121.292 88.6997 121.506 84.2669 121.034 79.7025C120.477 74.8308 119.663 72.5047 117.519 70.0469C115.719 67.9403 113.962 67.1503 111.004 67.1503C108.089 67.1503 105.346 68.8619 103.331 71.8903L101.917 74.0408L101.188 73.0753C100.116 71.6708 97.1588 71.1003 90.5576 71.1003H85.0281L84.7281 69.5203C84.5566 68.6864 84.5566 66.4919 84.6423 64.7364C85.071 57.758 89.6146 52.2719 96.5587 50.253C100.116 49.2436 110.704 49.5947 114.948 50.8675ZM112.719 74.3919C114.09 75.3575 114.99 78.9564 114.99 83.2575C114.99 87.5147 115.033 87.4708 110.575 87.5147C107.875 87.5586 107.532 87.4708 106.589 86.3297C105.089 84.5303 105.174 81.6775 106.889 78.2103C108.861 74.1725 110.704 72.9436 112.719 74.3919ZM110.704 106.694C110.704 106.914 109.975 108.669 109.118 110.512C107.146 114.594 103.717 118.5 102.045 118.5C99.7735 118.5 96.5587 114.419 96.5587 111.522C96.5587 108.976 98.7448 107.879 105.946 106.87C108.218 106.562 110.19 106.299 110.404 106.255C110.575 106.211 110.704 106.431 110.704 106.694Z" fill="white"/>
<path d="M215.936 48.7167C216.151 51.3061 216.665 52.7106 217.222 52.14C217.78 51.6133 219.494 46.5222 219.108 46.5222C218.894 46.5222 218.723 46.8294 218.723 47.1806C218.723 48.2778 216.622 48.0144 216.108 46.8294C215.808 46.1272 215.765 46.61 215.936 48.7167ZM217.565 49.4189C217.308 50.165 216.579 49.8139 216.579 48.9361C216.579 48.585 216.837 48.4094 217.18 48.5411C217.522 48.6728 217.694 49.0678 217.565 49.4189Z" fill="white"/>
<path d="M178.644 47.4003C178.13 47.9709 178.001 48.5853 178.173 49.3314C178.516 50.8237 177.658 51.2625 177.144 49.8581C176.93 49.2437 176.544 48.717 176.287 48.717C176.072 48.717 176.244 49.7264 176.715 50.9553C177.401 52.7109 177.487 53.3253 177.101 53.8081C176.244 54.9053 177.015 54.9931 178.387 53.9837C179.887 52.9303 180.059 52.5792 179.03 52.7548C178.13 52.9303 177.873 52.2281 178.43 51.3503C178.816 50.7798 178.944 50.7798 179.33 51.4381C179.544 51.877 180.016 52.2281 180.316 52.2281C181.13 52.2281 181.988 51.0431 181.645 50.4725C181.431 50.1653 181.173 50.2531 180.788 50.7798C180.059 51.8331 179.373 51.1309 180.059 50.0337C180.788 48.8048 180.702 48.6292 179.673 48.9364C178.944 49.1998 178.816 49.0681 178.944 48.4098C179.073 47.8392 179.459 47.6637 180.273 47.7075C181.516 47.7953 181.859 47.2248 180.745 46.7859C179.716 46.3909 179.502 46.4348 178.644 47.4003Z" fill="white"/>
<path d="M211.736 56.6167C210.921 59.6012 210.836 60.2595 211.479 59.1184C211.993 58.1967 214.008 58.109 214.008 59.0306C214.008 59.3817 214.179 59.689 214.394 59.689C214.908 59.689 213.45 54.2906 212.85 54.1151C212.636 54.0273 212.122 55.1684 211.736 56.6167ZM213.536 57.1434C213.579 57.3629 213.279 57.4945 212.936 57.4945C212.293 57.4945 212.036 56.134 212.593 55.5634C212.893 55.3001 213.45 56.3095 213.536 57.1434Z" fill="white"/>
<path d="M184.731 56.7049C183.66 57.2755 183.788 58.0655 184.86 57.4949C185.546 57.0999 185.717 57.1438 185.717 57.7582C185.717 58.1532 185.331 58.5482 184.86 58.6799C183.874 58.9432 183.702 59.6893 184.645 59.6893C184.988 59.6893 185.288 59.9966 185.288 60.3477C185.288 61.2693 183.702 61.1816 183.188 60.216C182.802 59.5577 182.759 59.5577 182.717 60.4355C182.717 61.1377 183.059 61.5327 183.788 61.7082C185.031 62.0155 186.146 61.2693 186.146 60.0843C186.146 59.6016 186.446 59.2505 186.832 59.2505C187.389 59.2505 187.475 59.5577 187.303 60.5671C187.132 61.2693 187.217 61.8838 187.432 61.8838C187.86 61.8838 188.117 61.1377 188.546 58.6799C188.718 57.7143 189.061 57.056 189.403 57.056C189.746 57.056 190.004 56.8366 190.004 56.6171C190.004 56.3538 189.318 56.1782 188.503 56.1782C187.089 56.1782 186.446 56.7927 187.517 57.1438C187.775 57.2316 187.86 57.5827 187.689 57.846C187.217 58.636 186.574 58.4605 186.574 57.5388C186.574 56.5293 185.717 56.1343 184.731 56.7049Z" fill="white"/>
<path d="M195.876 58.1967C195.361 58.7234 196.047 59.2501 197.333 59.2501C199.048 59.2501 198.962 60.5667 197.205 61.4445C195.533 62.3223 194.247 64.6923 194.376 66.7112C194.547 68.9056 195.319 68.4229 195.619 66.009C196.219 60.8301 202.134 61.1812 202.52 66.404C202.691 68.5984 203.463 68.8617 203.634 66.8429C203.849 64.7801 202.563 62.3662 200.848 61.5323C198.962 60.6106 198.962 59.3379 200.848 59.1623C201.577 59.0745 202.22 58.8112 202.22 58.5917C202.22 58.109 196.347 57.714 195.876 58.1967Z" fill="white"/>
<path d="M296.093 59.7768C293.093 61.5762 284.991 64.6046 278.862 66.2724L277.061 66.7551L278.519 68.7301C279.333 69.8274 280.148 71.2318 280.276 71.8462C280.619 73.1629 279.89 75.7524 278.433 78.7807C276.676 82.2918 267.503 97.0385 267.117 96.9068C266.688 96.7312 256.015 79.9657 256.015 79.4829C256.015 79.2635 256.786 78.3857 257.729 77.5079C259.573 75.7962 259.744 75.489 258.887 75.489C258.33 75.489 254.729 79.0001 254.729 79.5707C254.729 79.7024 257.344 83.9157 260.516 88.8751C263.688 93.8346 266.302 98.1796 266.302 98.4868C266.302 98.794 266.045 99.3646 265.745 99.7596C265.274 100.462 264.373 99.2329 258.415 89.9724L251.6 79.3951L254.129 76.7618L256.615 74.1724H246.413H236.211L238.783 76.3668C242.084 79.1757 243.413 81.019 251.686 94.054L258.587 104.982V113.628V122.318L255.843 124.996L253.1 127.717H262.787L272.518 127.673L269.603 124.952L266.731 122.231V113.804V105.333L276.418 89.4457C287.092 71.8901 288.806 69.3007 292.621 64.824C295.707 61.2251 297.293 59.2501 297.079 59.2501C296.993 59.2501 296.565 59.5135 296.093 59.7768Z" fill="white"/>
<path d="M295.536 65.2191C291.764 69.3886 289.192 73.2069 277.919 91.4208L269.303 105.334V113.892V122.45L272.389 126.312L275.433 130.131L263.602 130.262C256.186 130.306 251.729 130.526 251.729 130.789C251.729 131.052 256.444 131.228 264.588 131.228H277.447L273.804 126.707L270.16 122.231V114.067V105.948L278.862 91.9036C290.478 73.2069 292.236 70.5736 295.836 66.6236C297.722 64.5608 298.88 62.9369 298.794 62.4541C298.708 61.9275 297.765 62.7175 295.536 65.2191Z" fill="white"/>
<path d="M197.291 64.078C195.705 65.7019 196.176 66.2725 199.005 66.2725C201.02 66.2725 201.577 66.1408 201.577 65.6141C201.577 64.6486 199.991 63.2002 199.005 63.2002C198.534 63.2002 197.762 63.5952 197.291 64.078Z" fill="white"/>
<path d="M224.467 64.6923C221.938 65.8334 220.094 69.4323 220.652 72.2411C220.995 74.2161 223.095 76.63 224.981 77.2445C229.053 78.6489 233.297 75.2256 233.297 70.5734C233.297 65.8334 228.71 62.805 224.467 64.6923Z" fill="white"/>
<path d="M168.271 67.1501C166.471 68.2473 165.571 70.1345 165.571 72.724C165.571 76.5862 168.271 79.439 172 79.439C174.658 79.439 176.544 78.1662 177.658 75.6645C178.601 73.3823 178.473 71.7145 177.144 69.4323C175.344 66.404 171.186 65.3067 168.271 67.1501Z" fill="white"/>
<path d="M196.433 67.5889C196.433 67.8523 197.59 68.0278 199.005 68.0278C200.42 68.0278 201.577 67.8523 201.577 67.5889C201.577 67.3256 200.42 67.1501 199.005 67.1501C197.59 67.1501 196.433 67.3256 196.433 67.5889Z" fill="white"/>
<path d="M196.433 68.9058C196.433 69.1692 197.59 69.3447 199.005 69.3447C200.42 69.3447 201.577 69.1692 201.577 68.9058C201.577 68.6425 200.42 68.4669 199.005 68.4669C197.59 68.4669 196.433 68.6425 196.433 68.9058Z" fill="white"/>
<path d="M196.433 70.2222C196.433 70.4856 197.59 70.6611 199.005 70.6611C200.42 70.6611 201.577 70.4856 201.577 70.2222C201.577 69.9589 200.42 69.7834 199.005 69.7834C197.59 69.7834 196.433 69.9589 196.433 70.2222Z" fill="white"/>
<path d="M196.519 72.0221C196.605 72.5488 197.162 73.3827 197.848 73.8654L199.005 74.7871L200.205 73.8654C200.848 73.3827 201.405 72.5488 201.491 72.0221C201.62 71.1443 201.448 71.1004 199.005 71.1004C196.562 71.1004 196.39 71.1443 196.519 72.0221Z" fill="white"/>
<path d="M313.711 75.1382C314.139 75.7087 315.04 76.7621 315.683 77.5082L316.883 78.8248L314.568 85.4082C313.282 89.0071 312.039 92.5182 311.782 93.1765L311.31 94.4054L309.339 92.8693C306.51 90.631 305.995 91.4649 308.696 93.8787C310.71 95.6782 310.882 95.9854 310.367 96.6876C309.81 97.4776 309.639 97.3899 307.581 95.5026L305.352 93.4399L303.638 96.9949C302.052 100.199 302.009 100.506 302.78 100.506C303.252 100.506 304.623 100.945 305.824 101.472C308.353 102.569 308.353 102.437 305.781 109.547C302.695 117.886 299.351 122.802 294.379 126.225L292.236 127.717H302.009C307.367 127.717 311.739 127.629 311.739 127.542C311.739 127.454 310.967 126.4 310.024 125.259C306.852 121.309 306.767 118.939 309.381 110.6C310.282 107.835 311.053 105.465 311.139 105.378C311.267 105.246 311.739 105.553 312.21 106.036L313.068 106.914L311.482 111.742C308.824 119.817 309.167 122.889 313.454 128.375L314.825 130.131L304.452 130.263C297.851 130.307 294.207 130.526 294.379 130.789C294.636 131.228 316.454 131.448 316.454 131.053C316.454 130.921 315.468 129.473 314.225 127.849C311.139 123.679 310.71 122.45 311.01 118.5C311.225 115.56 312.982 109.24 313.882 108.274C314.054 108.099 315.425 109.723 316.926 111.917C318.426 114.155 319.883 116.218 320.098 116.569C320.44 117.096 321.126 116.482 323.355 113.541C324.898 111.522 326.784 109.459 327.513 108.933C328.799 107.967 328.842 107.967 329.099 108.845C329.313 109.503 328.67 110.557 326.527 113.146C323.355 116.964 321.726 119.378 322.369 119.378C322.584 119.378 323.827 117.93 325.156 116.174C327.556 112.97 329.614 110.732 329.871 111.083C329.956 111.171 331.028 113.892 332.185 117.096L334.371 122.889L331.714 125.303L329.099 127.673L339.129 127.717H349.117L346.159 125.347L343.159 122.977L339.687 113.146C337.758 107.748 336.129 103.052 336.086 102.7C335.957 101.954 338.829 101.033 341.444 100.989L343.03 100.945L342.259 99.2771C341.787 98.3993 341.101 96.5999 340.715 95.3271C340.287 94.0982 339.858 93.0449 339.687 93.0449C339.558 93.0449 338.787 93.6593 338.015 94.4493C337.243 95.1954 336.558 95.766 336.429 95.6343C336.258 95.4587 331.114 81.2826 330.942 80.4926C330.857 80.1854 331.714 78.8687 332.828 77.5521C334.071 76.0598 334.672 75.0504 334.329 74.9187C333.771 74.7432 330.342 78.2982 329.956 79.5271C329.785 79.966 330.899 83.6526 332.528 88.0415C334.071 92.3426 335.272 96.0732 335.143 96.3804C334.5 98.136 333.557 96.4682 330.428 87.9537L327.085 78.9126L328.328 77.5521C329.013 76.7621 329.914 75.7087 330.342 75.1382L331.157 74.1726H322.026H312.896L313.711 75.1382ZM320.183 84.4426C320.569 85.7593 320.355 86.6371 318.126 92.6499C316.754 96.3804 315.597 99.6282 315.597 99.8915C315.597 100.111 316.197 100.901 316.926 101.647C317.654 102.349 319.112 104.061 320.14 105.465C321.684 107.572 321.941 108.187 321.598 108.889C321.341 109.328 320.998 109.723 320.783 109.723C320.569 109.723 319.455 108.406 318.212 106.738C317.011 105.114 315.34 102.964 314.482 101.954L312.939 100.111L316.111 91.5526C317.826 86.8126 319.369 82.9504 319.497 82.9504C319.626 82.9504 319.926 83.6087 320.183 84.4426ZM324.127 95.1515C325.584 99.0576 326.742 102.437 326.742 102.613C326.742 103.359 322.841 107.221 322.498 106.826C322.284 106.607 320.912 104.895 319.455 102.964L316.797 99.5404L318.512 94.8443C319.497 92.2987 320.483 89.6215 320.741 88.9193C320.998 88.2171 321.255 87.7343 321.384 87.8221C321.469 87.9099 322.712 91.2015 324.127 95.1515Z" fill="white"/>
<path d="M360.133 76.6302L362.748 79.088V100.901V122.67L360.09 125.171L357.39 127.673H366.391H375.393L373.164 125.522L370.892 123.372V116.745V110.074L375.007 105.07C377.279 102.305 379.208 100.067 379.293 100.067C379.379 100.067 379.636 100.418 379.851 100.857C380.194 101.515 379.636 102.481 376.636 106.255L373.035 110.82V117.227V123.679L375.65 126.927L378.308 130.131L368.492 130.35C363.091 130.482 358.976 130.701 359.319 130.921C359.704 131.096 364.591 131.184 370.206 131.14L380.451 131.009L377.15 127.102L373.893 123.152V117.315V111.434L377.193 107.265C378.993 104.982 380.579 103.139 380.708 103.139C380.879 103.139 383.237 107.747 385.98 113.409L390.995 123.723L388.381 125.698L385.723 127.717H395.968C402.055 127.717 406.041 127.541 405.827 127.322C405.569 127.102 404.155 126.137 402.655 125.127L399.868 123.328L392.324 108.274L384.737 93.2641L387.352 90.0163C393.996 81.7213 399.397 76.8496 404.112 74.9185C405.741 74.2602 405.355 74.2163 394.896 74.2163C384.737 74.2163 384.094 74.2602 385.466 74.8746C389.71 76.7618 390.481 79.8341 387.738 83.9596C386.838 85.2763 383.408 89.6213 380.108 93.6591L374.107 100.945L373.978 90.7624L373.893 80.5802L376.036 78.3418C377.236 77.113 378.05 75.9718 377.879 75.7963C377.707 75.6207 376.55 76.4985 375.307 77.7713L373.035 80.0535V91.2891V102.569L371.964 103.578L370.892 104.587V92.0791V79.5268L373.592 76.8496L376.25 74.1724H366.906H357.561L360.133 76.6302Z" fill="white"/>
<path d="M411.356 76.3229C412.299 78.1662 414.7 83.9596 415.685 86.6807C415.9 87.339 416.157 86.8124 416.757 84.5301C417.957 79.6146 420.872 77.6835 427.045 77.6835C429.788 77.6835 430.474 77.9907 430.474 79.2635C430.474 80.2729 430.345 80.3168 427.259 80.3168C421.987 80.3168 419.586 82.204 418.729 86.9879C418.386 88.919 419.157 89.3579 419.543 87.4268C420.443 82.9501 422.758 81.1946 427.688 81.1946H430.474V102.13V123.108L427.902 125.215C426.487 126.4 425.33 127.453 425.33 127.541C425.33 127.629 429.316 127.717 434.203 127.717H443.076L440.847 125.391L438.618 123.065V100.374V77.6835H441.961C448.177 77.6835 450.577 79.2196 452.335 84.2229L453.363 86.9879L454.478 84.0035C455.121 82.3357 456.407 79.5268 457.393 77.7712C458.379 75.9718 459.193 74.4357 459.193 74.3479C459.193 74.2601 448.177 74.1724 434.76 74.1724H410.327L411.356 76.3229Z" fill="white"/>
<path d="M465.366 76.6742L468.152 79.2198L468.195 101.033V122.845L465.366 125.259L462.579 127.717H471.924C482.34 127.717 481.697 127.98 477.882 124.908L476.339 123.679V101.691V79.7026L478.996 76.9376L481.654 74.1726H472.138H462.579L465.366 76.6742Z" fill="white"/>
<path d="M460.222 77.3765C459.75 78.1665 459.064 79.2637 458.679 79.8782C457.736 81.546 455.335 87.6026 455.335 88.3926C455.335 89.7532 456.107 89.051 456.835 86.9882C457.221 85.8471 458.507 83.0821 459.665 80.7999C460.822 78.5176 461.636 76.4987 461.465 76.3232C461.251 76.1037 460.693 76.5865 460.222 77.3765Z" fill="white"/>
<path d="M480.497 78.0347L478.482 80.1414V102.042V123.986L481.054 126.927C482.469 128.507 483.626 129.955 483.626 130.087C483.626 130.219 479.254 130.35 473.938 130.35C467.637 130.35 464.38 130.482 464.551 130.789C464.723 131.052 468.838 131.228 475.567 131.228H486.283L482.811 127.322L479.339 123.416V101.954V80.4925L481.268 78.5614C483.111 76.718 483.583 75.928 482.854 75.928C482.683 75.928 481.611 76.8936 480.497 78.0347Z" fill="white"/>
<path d="M403.383 78.0786C400.126 79.3952 397.382 81.7652 392.281 87.6464L387.48 93.1764L395.025 108.669L402.569 124.118L406.469 126.839C408.613 128.331 410.456 129.736 410.584 129.955C410.713 130.175 405.869 130.35 399.397 130.35C391.896 130.35 388.081 130.482 388.252 130.789C388.423 131.052 393.267 131.228 401.411 131.228H414.357L408.698 127.234L402.997 123.24L398.882 114.857C396.611 110.205 393.396 103.446 391.681 99.8036L388.595 93.1325L393.396 87.6902C398.454 81.9847 400.897 79.9658 404.283 78.7369C407.927 77.4202 408.141 77.2886 406.684 77.2886C405.998 77.2886 404.498 77.6397 403.383 78.0786Z" fill="white"/>
<path d="M217.651 79.6147C215.465 80.9752 215.122 81.5897 211.522 90.8502C209.464 96.1169 207.535 102.305 205.392 110.469C203.634 117.052 202.134 122.45 202.006 122.45C201.877 122.45 199.777 117.052 197.333 110.469C193.133 99.233 187.217 86.2858 184.603 82.643C184.002 81.853 182.759 80.9313 181.645 80.5363C178.001 79.088 174.358 80.5363 172.815 84.0036C171.443 87.1197 171.7 88.0852 176.072 96.8191C179.202 103.051 182.288 108.099 189.403 118.851C194.461 126.488 199.305 133.422 200.077 134.169C201.791 135.836 203.677 136.1 204.92 134.827C205.306 134.432 209.25 127.234 213.665 118.939C219.623 107.66 222.538 101.691 224.981 95.4585C227.853 88.1291 228.239 86.9002 228.024 85.013C227.681 81.3702 225.281 78.9563 221.638 78.693C219.794 78.5613 219.066 78.7369 217.651 79.6147ZM224.295 82.5991C224.895 83.7402 224.767 84.223 220.48 95.1074C218.037 101.34 215.765 106.782 215.379 107.177C214.565 108.142 212.593 108.186 211.693 107.265C211.307 106.914 211.007 106.036 211.007 105.334C211.007 104.105 218.637 84.0474 219.837 82.1602C220.78 80.668 223.352 80.9313 224.295 82.5991ZM180.316 83.6963C182.159 86.7686 191.289 105.29 191.289 105.948C191.289 108.142 188.117 109.24 186.703 107.528C185.588 106.211 175.43 86.1102 175.43 85.2324C175.43 84.7936 175.73 84.0036 176.115 83.433C176.715 82.5991 177.101 82.4674 178.344 82.6869C179.202 82.8186 180.102 83.2574 180.316 83.6963Z" fill="white"/>
<path d="M220.523 82.1602C219.837 83.0819 211.436 104.675 211.436 105.597C211.436 107.484 213.75 108.23 214.951 106.738C215.765 105.772 223.867 84.7058 223.867 83.5647C223.867 81.853 221.552 80.8875 220.523 82.1602Z" fill="white"/>
<path d="M176.501 84.0036C175.687 85.2763 175.344 84.3986 181.773 97.0825C186.231 105.904 187.26 107.572 188.16 107.835C189.018 108.011 189.489 107.879 190.089 107.089C190.518 106.519 190.775 105.729 190.646 105.29C190.218 103.929 180.102 84.5302 179.416 83.7402C178.473 82.643 177.273 82.7747 176.501 84.0036Z" fill="white"/>
<path d="M440.761 101.866V123.855L443.333 126.795C444.748 128.419 445.905 129.911 445.905 130.043C445.905 130.219 441.619 130.35 436.389 130.35C429.916 130.35 427.002 130.482 427.302 130.789C427.602 131.096 431.46 131.184 437.975 131.14L448.177 131.009L445.176 127.366L442.176 123.767L441.919 111.829C441.747 105.29 441.619 95.6781 441.619 90.4992V81.0631L444.748 81.2825C446.419 81.4142 448.477 81.8092 449.248 82.2481C450.749 83.0381 451.092 82.6431 449.849 81.5019C448.948 80.6681 445.433 79.8781 442.647 79.8781H440.761V101.866Z" fill="white"/>
<path d="M342.773 95.5464C342.944 96.2486 343.716 98.2236 344.53 100.023C345.345 101.779 346.031 103.315 346.031 103.402C346.031 103.49 344.316 103.578 342.173 103.578C340.072 103.578 338.315 103.666 338.315 103.71C338.315 103.797 339.944 108.274 341.916 113.672L345.473 123.46L348.86 126.488C350.746 128.156 352.332 129.736 352.375 129.955C352.46 130.175 348.26 130.35 341.958 130.35C335.057 130.35 331.499 130.482 331.671 130.789C331.842 131.052 336.257 131.228 343.587 131.228H355.246L353.318 129.341C352.246 128.331 350.274 126.488 348.903 125.303C346.245 122.933 346.502 123.547 340.844 107.791L339.558 104.324L343.673 104.587C345.902 104.763 347.745 104.763 347.745 104.675C347.745 104.544 347.016 102.92 346.073 101.032C345.173 99.1891 344.187 96.9069 343.93 95.9852C343.33 94.098 342.344 93.7469 342.773 95.5464Z" fill="white"/>
</svg>
